<?xml version="1.0" encoding="UTF-8"?>
<svg width="39px" height="34px" viewBox="0 0 39 34" version="1.1" xmlns="http://www.w3.org/2000/svg" xmlns:xlink="http://www.w3.org/1999/xlink">
    <title>eye@3x</title>
    <g id="Version-2.0-[iPad]" stroke="none" stroke-width="1" fill="none" fill-rule="evenodd" fill-opacity="0.896244122">
        <g id="12.9″-iPad-Pro" transform="translate(-802.000000, -593.000000)" fill="#FFFFFF" fill-rule="nonzero">
            <g id="Group-6" transform="translate(85.000000, 312.000000)">
                <g id="Group-5" transform="translate(409.000000, 202.000000)">
                    <g id="Group" transform="translate(308.000000, 79.000000)">
                        <path d="M19.5,0 C14.6963726,0 10.3640647,2.01934252 7.2871097,5.25630977 C7.28727415,5.25592923 7.2972653,5.23076923 7.2972653,5.23076923 C7.2298512,5.304272 7.17052895,5.37469973 7.1042972,5.44786642 C6.97279765,5.59057619 6.84625305,5.73742219 6.71962915,5.88461538 C1.22795329,12.1126517 0,17 0,17 C0,17 1.22795329,21.8873483 6.71962915,28.1153846 C6.84625305,28.2625778 6.97279765,28.4094238 7.1042972,28.5521336 C7.17052895,28.6253003 7.2298512,28.695728 7.2972653,28.7692308 C7.2972653,28.7692308 7.28727415,28.7440708 7.2871097,28.7436902 C10.3640647,31.9806576 14.6963726,34 19.5,34 C24.3036274,34 28.6359352,31.9806576 31.7128903,28.7436902 C31.7127258,28.7440708 31.7027347,28.7692308 31.7027347,28.7692308 C31.7701488,28.695728 31.829471,28.6253003 31.8957028,28.5521336 C32.0272024,28.4094238 32.1537469,28.2625778 32.2803708,28.1153846 C37.7720467,21.8873483 39,17 39,17 C39,17 37.7720467,12.1126517 32.2803708,5.88461538 C32.1537469,5.73742219 32.0272024,5.59057619 31.8957028,5.44786642 C31.829471,5.37469973 31.7701488,5.304272 31.7027347,5.23076923 C31.7027347,5.23076923 31.7127258,5.25592923 31.7128903,5.25630977 C28.6359352,2.01934252 24.3036274,0 19.5,0 Z M19.5,2.61538462 C27.3975,2.61538462 33.8,9.05576923 33.8,17 C33.8,24.9442308 27.3975,31.3846154 19.5,31.3846154 C11.6025,31.3846154 5.2,24.9442308 5.2,17 C5.2,9.05576923 11.6025,2.61538462 19.5,2.61538462 Z M19.5,10.4615385 C15.91005,10.4615385 13,13.3888077 13,17 C13,20.6111923 15.91005,23.5384615 19.5,23.5384615 C23.08995,23.5384615 26,20.6111923 26,17 C26,16.779 25.9877924,16.5612692 25.9669923,16.3461538 L21.45,16.3461538 L20.8,15.0384615 L22.8172854,11.3848405 C21.8455354,10.8022636 20.71355,10.4615385 19.5,10.4615385 Z" id="Shape"></path>
                    </g>
                </g>
            </g>
        </g>
    </g>
</svg>