<?xml version="1.0" encoding="UTF-8"?>
<svg width="90px" height="170px" viewBox="0 0 90 170" version="1.1" xmlns="http://www.w3.org/2000/svg" xmlns:xlink="http://www.w3.org/1999/xlink">
    <title>CircleGrid@3x</title>
    <g id="Version-3.0-Cherry-[iPhone]" stroke="none" stroke-width="1" fill="none" fill-rule="evenodd">
        <g id="iPhone-12" transform="translate(-237.000000, -261.000000)" fill="#F9BE44">
            <g id="CircleGrid" transform="translate(237.000000, 261.000000)">
                <circle id="Oval-Copy-42" cx="85" cy="165" r="5"></circle>
                <circle id="Oval-Copy-41" cx="65" cy="165" r="5"></circle>
                <circle id="Oval-Copy-40" cx="45" cy="165" r="5"></circle>
                <circle id="Oval-Copy-39" cx="25" cy="165" r="5"></circle>
                <circle id="Oval-Copy-38" cx="5" cy="165" r="5"></circle>
                <circle id="Oval-Copy-37" cx="85" cy="145" r="5"></circle>
                <circle id="Oval-Copy-36" cx="65" cy="145" r="5"></circle>
                <circle id="Oval-Copy-35" cx="45" cy="145" r="5"></circle>
                <circle id="Oval-Copy-34" cx="25" cy="145" r="5"></circle>
                <circle id="Oval-Copy-33" cx="5" cy="145" r="5"></circle>
                <circle id="Oval-Copy-32" cx="85" cy="125" r="5"></circle>
                <circle id="Oval-Copy-31" cx="65" cy="125" r="5"></circle>
                <circle id="Oval-Copy-30" cx="45" cy="125" r="5"></circle>
                <circle id="Oval-Copy-29" cx="25" cy="125" r="5"></circle>
                <circle id="Oval-Copy-28" cx="5" cy="125" r="5"></circle>
                <circle id="Oval-Copy-27" cx="85" cy="105" r="5"></circle>
                <circle id="Oval-Copy-26" cx="65" cy="105" r="5"></circle>
                <circle id="Oval-Copy-25" cx="45" cy="105" r="5"></circle>
                <circle id="Oval-Copy-24" cx="25" cy="105" r="5"></circle>
                <circle id="Oval-Copy-23" cx="5" cy="105" r="5"></circle>
                <circle id="Oval-Copy-22" cx="85" cy="85" r="5"></circle>
                <circle id="Oval-Copy-21" cx="65" cy="85" r="5"></circle>
                <circle id="Oval-Copy-20" cx="45" cy="85" r="5"></circle>
                <circle id="Oval-Copy-19" cx="25" cy="85" r="5"></circle>
                <circle id="Oval-Copy-18" cx="5" cy="85" r="5"></circle>
                <circle id="Oval-Copy-17" cx="85" cy="65" r="5"></circle>
                <circle id="Oval-Copy-16" cx="65" cy="65" r="5"></circle>
                <circle id="Oval-Copy-15" cx="45" cy="65" r="5"></circle>
                <circle id="Oval-Copy-14" cx="25" cy="65" r="5"></circle>
                <circle id="Oval-Copy-13" cx="5" cy="65" r="5"></circle>
                <circle id="Oval-Copy-12" cx="85" cy="45" r="5"></circle>
                <circle id="Oval-Copy-11" cx="65" cy="45" r="5"></circle>
                <circle id="Oval-Copy-10" cx="45" cy="45" r="5"></circle>
                <circle id="Oval-Copy-9" cx="25" cy="45" r="5"></circle>
                <circle id="Oval-Copy-8" cx="5" cy="45" r="5"></circle>
                <circle id="Oval-Copy-7" cx="85" cy="25" r="5"></circle>
                <circle id="Oval-Copy-6" cx="65" cy="25" r="5"></circle>
                <circle id="Oval-Copy-5" cx="45" cy="25" r="5"></circle>
                <circle id="Oval-Copy-4" cx="25" cy="25" r="5"></circle>
                <circle id="Oval-Copy-3" cx="5" cy="25" r="5"></circle>
                <circle id="Oval-Copy-2" cx="85" cy="5" r="5"></circle>
                <circle id="Oval-Copy" cx="65" cy="5" r="5"></circle>
                <circle id="Oval" cx="45" cy="5" r="5"></circle>
                <circle id="Oval" cx="25" cy="5" r="5"></circle>
                <circle id="Oval" cx="5" cy="5" r="5"></circle>
            </g>
        </g>
    </g>
</svg>