<?xml version="1.0" encoding="UTF-8"?>
<svg width="305px" height="77px" viewBox="0 0 305 77" version="1.1" xmlns="http://www.w3.org/2000/svg" xmlns:xlink="http://www.w3.org/1999/xlink">
    <title>Trivio!@3x</title>
    <g id="Version-2.0-[iPad]" stroke="none" stroke-width="1" fill="none" fill-rule="evenodd">
        <g id="Artboard" transform="translate(-181.000000, -282.000000)" fill="#E9C360" fill-rule="nonzero">
            <path d="M217.4,357 L217.4,301.6 L238.8,301.6 L238.8,288.3 L181.2,288.3 L181.2,301.6 L202.6,301.6 L202.6,357 L217.4,357 Z M262.9,357 L262.9,332.3 C262.9,322.6 269.8,316.4 280.6,316.4 L280.6,304.1 C272.7,304.1 266.3,308.2 262.9,314.9 L262.9,305.3 L248.3,305.3 L248.3,357 L262.9,357 Z M296.3,298.2 C300.6,298.2 304.1,294.6 304.1,290.2 C304.1,286.1 300.6,282.4 296.3,282.4 C291.8,282.4 288.3,286.1 288.3,290.2 C288.3,294.6 291.8,298.2 296.3,298.2 Z M303.5,357 L303.5,305.3 L288.9,305.3 L288.9,357 L303.5,357 Z M347,357 L369.1,305.3 L353.9,305.3 L340.3,340.2 L326.4,305.3 L311.1,305.3 L333.5,357 L347,357 Z M384.1,298.2 C388.4,298.2 391.9,294.6 391.9,290.2 C391.9,286.1 388.4,282.4 384.1,282.4 C379.6,282.4 376.1,286.1 376.1,290.2 C376.1,294.6 379.6,298.2 384.1,298.2 Z M391.3,357 L391.3,305.3 L376.7,305.3 L376.7,357 L391.3,357 Z M429.4,358.2 C444.7,358.2 457.5,345.8 457.5,331.1 C457.5,316.4 444.7,304.1 429.4,304.1 C414,304.1 401.1,316.4 401.1,331.1 C401.1,345.8 414,358.2 429.4,358.2 Z M429.4,345.9 C421.6,345.9 415.1,339.1 415.1,331.1 C415.1,323.1 421.6,316.4 429.4,316.4 C437.1,316.4 443.6,323.1 443.6,331.1 C443.6,339.1 437.1,345.9 429.4,345.9 Z M481.5,332.8 L484.8,288.3 L468.3,288.3 L471.6,332.8 L481.5,332.8 Z M476.5,358.2 C481.4,358.2 485.4,354 485.4,348.9 C485.4,344.2 481.4,340 476.5,340 C471.3,340 467.2,344.2 467.2,348.9 C467.2,354 471.3,358.2 476.5,358.2 Z" id="Trivio!"></path>
        </g>
    </g>
</svg>