<?xml version="1.0" encoding="UTF-8"?>
<svg width="57px" height="61px" viewBox="0 0 57 61" version="1.1" xmlns="http://www.w3.org/2000/svg" xmlns:xlink="http://www.w3.org/1999/xlink">
    <title>medal.2@2x</title>
    <g id="Drafting" stroke="none" stroke-width="1" fill="none" fill-rule="evenodd" fill-opacity="0.896244122">
        <g id="Artboard" transform="translate(-394.000000, -494.000000)" fill="#FFFFFF" fill-rule="nonzero">
            <g id="medal.2" transform="translate(394.000000, 494.000000)">
                <path d="M1.03907495,0 C1.00586012,0 0.972615881,0 0.939465948,0.00240987284 C0.604286313,0.0227687334 0.301695548,0.209980198 0.133867313,0.500829909 C-0.033960922,0.791679619 -0.0446231197,1.14734185 0.105480948,1.44772267 L11.7597779,25.7250667 C8.79276895,29.3469857 7.00782495,33.9737737 7.00782495,39.0141287 C7.00782495,50.6002637 16.4216899,60.0141287 28.0078249,60.0141287 C39.5939599,60.0141287 49.0078249,50.6002637 49.0078249,39.0141287 C49.0078249,33.9737737 47.2228809,29.3469857 44.2558719,25.7250667 L55.9101689,1.44772267 C56.0619762,1.14280296 56.0481536,0.781584317 55.8734878,0.489157647 C55.6988221,0.196730977 55.3873318,0.0133085028 55.0468869,0.00240987284 C54.6454628,-0.0114111136 54.2747175,0.216266491 54.1054809,0.580534673 L42.8066529,24.1254567 C39.0085479,20.3501037 33.7780509,18.0141287 28.0078249,18.0141287 C27.3089399,18.0141287 26.6189999,18.0507277 25.9375129,18.1176447 L33.9101689,1.44576967 C34.0612026,1.14071277 34.046703,0.779781017 33.8716858,0.487822395 C33.6966686,0.195863773 33.3851681,0.0129718783 33.0449339,0.00240987284 C32.643751,-0.010271805 32.2738536,0.218126271 32.1054809,0.582487673 L28.0078249,9.15084767 L23.9101689,0.582487673 C23.7530934,0.240356421 23.4171963,0.0154188512 23.0410279,0 C23.0078131,0 22.9745689,0 22.9414189,0.00240987284 C22.6064488,0.0224356661 22.3038479,0.209119847 22.1356696,0.499502447 C21.9674913,0.789885047 21.9561539,1.14525773 22.1054809,1.44576967 L26.9004029,11.4672537 L25.2988409,14.8168627 L25.2968869,14.8168627 L24.4336059,15.0570977 L24.1093869,15.8910817 L24.2031369,16.2309257 L24.2461059,16.3227227 L24.4882939,16.5102227 L23.5371219,18.4985037 C19.5583809,19.3637427 15.9969479,21.3542067 13.2089969,24.1254567 L1.91016895,0.580534673 C1.75222081,0.23855438 1.41551293,0.0143342623 1.03907495,0 Z M50.1660279,0.0258476728 L49.3105589,0.297331673 L49.1054809,0.582487673 L49.0625129,0.672331673 L49.0781369,1.56881667 L49.8066529,2.09225367 L50.6601689,1.82272267 L50.8671999,1.53561267 L50.9101689,1.44576967 L50.8925909,0.549284673 L50.1660279,0.0258476728 Z M38.1679809,0.0278006728 L37.3125129,0.295378673 L37.1054809,0.580534673 L37.0625129,0.672331673 L37.0781369,1.56686267 L37.8046999,2.09225367 L38.6601689,1.82272267 L38.8652469,1.53756667 L38.9101689,1.44772267 L38.8945439,0.551237673 L38.1679809,0.0278006728 Z M6.20313695,0.0336596728 L5.33790295,0.271940673 L5.01173095,1.10592567 L5.10548095,1.44576967 L5.14844995,1.53561267 L5.85743395,2.08444067 L6.72071595,1.84811267 L7.04688695,1.01217567 L6.95313695,0.672331673 L6.91016895,0.582487673 L6.20313695,0.0336596728 Z M18.2011839,0.0336596728 L17.3379029,0.271940673 L17.0117309,1.10787867 L17.1054809,1.44772267 L17.1504029,1.53756667 L17.8574339,2.08639467 L18.7207159,1.84615967 L19.0468869,1.01022267 L18.9531369,0.672331673 L18.9101689,0.580534673 L18.2011839,0.0336596728 Z M36.3925909,3.72311267 L35.5390749,3.99264467 L35.3320439,4.27780067 L35.2890749,4.36764467 L35.3046999,5.26412867 L36.0312629,5.78756667 L36.8847779,5.51998767 L37.0918089,5.23287867 L37.1347779,5.14303467 L37.1191529,4.24655067 L36.3925909,3.72311267 Z M48.3964969,3.72506667 L47.5429809,3.99459767 L47.3359499,4.28170667 L47.2929809,4.37155067 L47.3105589,5.26803467 L48.0371219,5.79147267 L48.8925909,5.51998767 L49.0976689,5.23483167 L49.1406369,5.14498767 L49.1250129,4.24850367 L48.3964969,3.72506667 Z M19.9746219,3.72897267 L19.1113409,3.96920667 L18.7871219,4.80319067 L18.8808719,5.14303467 L18.9238409,5.23287867 L19.6328249,5.78170667 L20.4961059,5.54147267 L20.8203249,4.70748767 L20.7265749,4.36764467 L20.6836059,4.27780067 L19.9746219,3.72897267 Z M7.97071595,3.73287867 L7.10743395,3.96920667 L6.78126295,4.80514467 L6.87501295,5.14498767 L6.91798095,5.23483167 L7.62501295,5.78365967 L8.49024695,5.54537867 L8.81641895,4.71139467 L8.72266895,4.37155067 L8.67969995,4.28170667 L7.97071595,3.73287867 Z M34.6191529,7.41842567 L33.7636839,7.68795667 L33.5586059,7.97311267 L33.5136839,8.06490967 L33.5293089,8.95944067 L34.2558719,9.48483167 L35.1113409,9.21530067 L35.3183719,8.93014467 L35.3613409,8.83834767 L35.3457159,7.94381667 L34.6191529,7.41842567 Z M46.6269659,7.42428467 L45.7734499,7.69381667 L45.5683719,7.98092567 L45.5254029,8.07076967 L45.5410279,8.96530067 L46.2695439,9.48873767 L47.1230589,9.21920667 L47.3281369,8.93405067 L47.3711059,8.84225367 L47.3554809,7.94772267 L46.6269659,7.42428467 Z M21.7500129,7.42623767 L20.8867309,7.66451967 L20.5605589,8.50045667 L20.6543089,8.83834767 L20.6972779,8.93014467 L21.4062629,9.47701967 L22.2695439,9.23873767 L22.5957159,8.40280067 L22.5019659,8.06295667 L22.4570439,7.97311267 L21.7500129,7.42623767 Z M9.74024695,7.43014467 L8.87696595,7.66842567 L8.55079395,8.50240967 L8.64454395,8.84225367 L8.68751295,8.93405067 L9.39454395,9.48287867 L10.2578249,9.24459767 L10.5839969,8.41061267 L10.4902469,8.07076967 L10.4472779,7.98092567 L9.74024695,7.43014467 Z M32.8437629,11.1156907 L31.9902469,11.3832697 L31.7832159,11.6703787 L31.7402469,11.7602227 L31.7558719,12.6567067 L32.4824339,13.1801447 L33.3379029,12.9125667 L33.5429809,12.6254567 L33.5859499,12.5356127 L33.5722779,11.6391287 L32.8437629,11.1156907 Z M23.5234499,11.1215507 L22.6601689,11.3617847 L22.3359499,12.1957697 L22.4296999,12.5356127 L22.4726689,12.6254567 L23.1816529,13.1742847 L24.0449339,12.9340507 L24.3691529,12.1000667 L24.2754029,11.7602227 L24.2324339,11.6703787 L23.5234499,11.1215507 Z M44.8593869,11.1235037 L44.0039189,11.3930347 L43.7988409,11.6781907 L43.7558719,11.7699877 L43.7714969,12.6645197 L44.5000129,13.1879567 L45.3535279,12.9184257 L45.5605589,12.6313167 L45.6035279,12.5414727 L45.5859499,11.6449877 L44.8593869,11.1235037 Z M11.5097779,11.1293627 L10.6445439,11.3676447 L10.3183719,12.2016287 L10.4121219,12.5414727 L10.4550909,12.6313167 L11.1640749,13.1820977 L12.0273559,12.9438167 L12.3535279,12.1098317 L12.2597779,11.7699877 L12.2168089,11.6781907 L11.5097779,11.1293627 Z M31.0703249,14.8110037 L30.2148559,15.0805347 L30.0097779,15.3656907 L29.9668089,15.4555347 L29.9804809,16.3520197 L30.7089969,16.8754567 L31.5625129,16.6078787 L31.7695439,16.3227227 L31.8125129,16.2309257 L31.7968869,15.3363947 L31.0703249,14.8110037 Z M43.0898559,14.8207697 L42.2363409,15.0922537 L42.0293089,15.3774097 L41.9863409,15.4672537 L42.0039189,16.3637377 L42.7304809,16.8871757 L43.5859499,16.6176447 L43.7910279,16.3305347 L43.8339969,16.2406907 L43.8183719,15.3442067 L43.0898559,14.8207697 Z M13.2773559,14.8285817 L12.4140749,15.0668627 L12.0879029,15.9008477 L12.1816529,16.2406907 L12.2246219,16.3305347 L12.9336059,16.8793627 L13.7968869,16.6430347 L14.1230589,15.8070977 L14.0293089,15.4672537 L13.9863409,15.3774097 L13.2773559,14.8285817 Z M41.3203249,18.5199877 L40.4668089,18.7895197 L40.2597779,19.0766287 L40.2168089,19.1664727 L40.2343869,20.0629567 L40.9609499,20.5863947 L41.8164189,20.3149097 L42.0214969,20.0297537 L42.0644659,19.9399097 L42.0488409,19.0434257 L41.3203249,18.5199877 Z M15.0468869,18.5278007 L14.1836059,18.7641287 L13.8574339,19.6000667 L13.9511839,19.9399097 L13.9941529,20.0297537 L14.7011839,20.5785817 L15.5664189,20.3403007 L15.8925909,19.5063167 L15.7988409,19.1664727 L15.7558719,19.0766287 L15.0468869,18.5278007 Z M28.0078249,20.0141287 C38.5130799,20.0141287 47.0078249,28.5088737 47.0078249,39.0141287 C47.0078249,49.5193837 38.5130799,58.0141287 28.0078249,58.0141287 C17.5025699,58.0141287 9.00782495,49.5193837 9.00782495,39.0141287 C9.00782495,28.5088737 17.5025699,20.0141287 28.0078249,20.0141287 Z M28.0078249,23.0141287 C27.4555402,23.0141287 27.0078249,23.4618439 27.0078249,24.0141287 C27.0078249,24.5664134 27.4555402,25.0141287 28.0078249,25.0141287 C28.5601097,25.0141287 29.0078249,24.5664134 29.0078249,24.0141287 C29.0078249,23.4618439 28.5601097,23.0141287 28.0078249,23.0141287 Z M24.1640749,23.5258477 C24.0640124,23.5219888 23.9639377,23.5331814 23.8671999,23.5590507 C23.6107041,23.6272899 23.3918586,23.7946993 23.2588746,24.024399 C23.1258906,24.2540987 23.0896785,24.5272434 23.1582159,24.7836597 C23.2264316,25.040591 23.3941413,25.2597876 23.6242983,25.3928207 C23.8544425,25.5258537 24.1280908,25.5617738 24.3847779,25.4926447 C24.6413488,25.4240064 24.8600754,25.2561213 24.9927137,25.0260193 C25.125352,24.7959174 25.161005,24.5225026 25.0918089,24.2660817 C24.9782495,23.8426573 24.602144,23.5425647 24.1640749,23.5258477 Z M31.8808719,23.5278007 C31.4318461,23.5316852 31.0404702,23.8344024 30.9238409,24.2680347 C30.7809803,24.8014341 31.0975038,25.3496673 31.6308719,25.4926447 C32.1642713,25.6355046 32.712504,25.3189807 32.8554809,24.7856127 C32.998341,24.2522136 32.6818176,23.703981 32.1484499,23.5610037 C32.0611652,23.5379071 31.9711545,23.5267379 31.8808719,23.5278007 Z M20.4843869,25.0238947 C20.3169165,25.0275521 20.153048,25.0732202 20.0078249,25.1567067 C19.7776278,25.2891241 19.6095559,25.5076684 19.5406735,25.7641452 C19.4717911,26.0206219 19.507756,26.2939648 19.6406369,26.5238947 C19.7733815,26.7537602 19.9920704,26.9214175 20.248519,26.9899258 C20.5049676,27.0584341 20.7781321,27.0221718 21.0078249,26.8891287 C21.4853557,26.6127374 21.6487957,26.0018037 21.3730589,25.5238947 C21.1904405,25.2073766 20.8497163,25.0156725 20.4843869,25.0238947 Z M35.4589969,25.0258477 C35.1192641,25.0418942 34.8109782,25.2295144 34.6406369,25.5238947 C34.5077563,25.7538245 34.4717916,26.0271671 34.540674,26.2836436 C34.6095564,26.5401201 34.777628,26.7586643 35.0078249,26.8910817 C35.4862451,27.1664907 36.0973366,27.0021344 36.3730589,26.5238947 C36.6487964,26.0459854 36.4853563,25.435051 36.0078249,25.1586597 C35.8414396,25.0625847 35.6508996,25.0164755 35.4589969,25.0258477 Z M17.4140749,27.4067067 C17.1441442,27.4030811 16.8842142,27.5087438 16.6933719,27.6996757 C16.3029487,28.0901826 16.3029487,28.7232307 16.6933719,29.1137377 C17.0838789,29.5041609 17.716927,29.5041609 18.1074339,29.1137377 C18.4978572,28.7232307 18.4978572,28.0901826 18.1074339,27.6996757 C17.9232915,27.5154432 17.6745301,27.4103327 17.4140749,27.4067067 Z M38.6289189,27.4067067 C38.358314,27.4025509 38.0975797,27.5082541 37.9062629,27.6996757 C37.5158397,28.0901826 37.5158397,28.7232307 37.9062629,29.1137377 C38.2967699,29.5041609 38.929818,29.5041609 39.3203249,29.1137377 C39.7107482,28.7232307 39.7107482,28.0901826 39.3203249,27.6996757 C39.1366649,27.5159106 38.8886949,27.4108384 38.6289189,27.4067067 Z M40.9726689,30.5141287 C40.8051982,30.5177859 40.6413293,30.5634541 40.4961059,30.6469407 C40.2662404,30.7796852 40.0985831,30.9983741 40.0300748,31.2548227 C39.9615665,31.5112713 39.9978288,31.7844358 40.1308719,32.0141287 C40.4072632,32.4916595 41.0181969,32.6550994 41.4961059,32.3793627 C41.974346,32.1036407 42.1387028,31.4925491 41.8632939,31.0141287 C41.6803375,30.6969865 41.3386911,30.505185 40.9726689,30.5141287 Z M14.9707159,30.5160817 C14.630277,30.5314762 14.321114,30.7191823 14.1504029,31.0141287 C14.017522,31.2440586 13.9815571,31.5174014 14.0504395,31.7738782 C14.1193219,32.0303549 14.2873938,32.2488993 14.5175909,32.3813167 C14.9960114,32.6567256 15.607103,32.4923688 15.8828249,32.0141287 C16.1585617,31.5362196 15.9951217,30.9252859 15.5175909,30.6488947 C15.3517721,30.5531846 15.161963,30.5070879 14.9707159,30.5160817 Z M28.2363409,31.9496757 C25.2923409,31.9496757 23.3242309,33.6551907 23.3242309,36.1781907 L23.3242309,36.2309257 L26.2773559,36.2309257 L26.2773559,36.1684257 C26.2773559,35.1224257 27.0330589,34.3852227 28.1230589,34.3852227 C29.1680589,34.3852227 29.8535279,35.0098627 29.8535279,35.9418627 C29.8535279,36.6888627 29.3786369,37.3282377 27.5156369,39.0512377 L23.5078249,42.8227227 L23.5078249,44.9770197 L33.1504029,44.9770197 L33.1504029,42.4613947 L27.8066529,42.4613947 L27.8066529,42.2953787 L29.8984499,40.3695977 C32.1484499,38.3655977 32.9746219,37.1173947 32.9746219,35.7113947 C32.9746219,33.4703947 31.0753409,31.9496757 28.2363409,31.9496757 Z M13.5097779,34.1332697 C13.0607521,34.1371542 12.6693762,34.4398714 12.5527469,34.8735037 C12.4098869,35.4069027 12.7264103,35.9551353 13.2597779,36.0981127 C13.793177,36.2409727 14.3414096,35.9244493 14.4843869,35.3910817 C14.627247,34.8576826 14.3107236,34.30945 13.7773559,34.1664727 C13.6900712,34.1433761 13.6000605,34.1322069 13.5097779,34.1332697 Z M42.5351689,34.1332697 C42.4351064,34.1294108 42.3350317,34.1406034 42.2382939,34.1664727 C41.7049263,34.30945 41.3884029,34.8576826 41.5312629,35.3910817 C41.5995019,35.6475777 41.7669113,35.8664235 41.996611,35.9994077 C42.2263107,36.1323919 42.4994555,36.168604 42.7558719,36.1000667 C43.0124428,36.0314284 43.2311694,35.8635433 43.3638077,35.6334413 C43.496446,35.4033394 43.532099,35.1299246 43.4629029,34.8735037 C43.3493435,34.4500793 42.973238,34.1499867 42.5351689,34.1332697 Z M13.0078249,38.0141287 C12.4555402,38.0141287 12.0078249,38.4618439 12.0078249,39.0141287 C12.0078249,39.5664134 12.4555402,40.0141287 13.0078249,40.0141287 C13.5601097,40.0141287 14.0078249,39.5664134 14.0078249,39.0141287 C14.0078249,38.4618439 13.5601097,38.0141287 13.0078249,38.0141287 Z M43.0078249,38.0141287 C42.4555402,38.0141287 42.0078249,38.4618439 42.0078249,39.0141287 C42.0078249,39.5664134 42.4555402,40.0141287 43.0078249,40.0141287 C43.5601097,40.0141287 44.0078249,39.5664134 44.0078249,39.0141287 C44.0078249,38.4618439 43.5601097,38.0141287 43.0078249,38.0141287 Z M13.5566529,41.8969407 C13.4565903,41.8930822 13.3565156,41.904275 13.2597779,41.9301447 C12.7264103,42.073122 12.4098869,42.6213546 12.5527469,43.1547537 C12.6957243,43.6881213 13.2439569,44.0046447 13.7773559,43.8617847 C14.3107236,43.7188073 14.627247,43.1705747 14.4843869,42.6371757 C14.3708279,42.2137509 13.9947223,41.9136578 13.5566529,41.8969407 Z M42.4863409,41.8988947 C42.0373148,41.9027787 41.6459383,42.2054961 41.5293089,42.6391287 C41.386449,43.1725281 41.7029729,43.7207607 42.2363409,43.8637377 C42.76974,44.0065977 43.3179726,43.6900743 43.4609499,43.1567067 C43.60381,42.6233076 43.2872866,42.075075 42.7539189,41.9320977 C42.6666342,41.9090011 42.5766235,41.8978319 42.4863409,41.8988947 Z M14.9941529,45.5121757 C14.8265121,45.5164283 14.6626324,45.5627711 14.5175909,45.6469407 C14.0400592,45.9233316 13.8766187,46.5342661 14.1523559,47.0121757 C14.4280783,47.490416 15.0391705,47.6547724 15.5175909,47.3793627 C15.7474562,47.2466182 15.9151133,47.0279294 15.9836216,46.7714811 C16.0521299,46.5150327 16.0158677,46.2418684 15.8828249,46.0121757 C15.7002065,45.6956576 15.3594823,45.5039535 14.9941529,45.5121757 Z M40.9492309,45.5160817 C40.6091065,45.5325426 40.3007351,45.720951 40.1308719,46.0160817 C39.8551345,46.4939909 40.0185746,47.1049254 40.4961059,47.3813167 C40.9740155,47.6570539 41.58495,47.4936134 41.8613409,47.0160817 C41.9943837,46.7863888 42.0306456,46.5132244 41.9621372,46.2567761 C41.8936287,46.0003277 41.7259714,45.781639 41.4961059,45.6488947 C41.3302871,45.5531846 41.140478,45.5070879 40.9492309,45.5160817 Z M38.6289189,48.6195977 C38.3589882,48.6159721 38.0990582,48.7216348 37.9082159,48.9125667 C37.5177927,49.3030736 37.5177927,49.9361217 37.9082159,50.3266287 C38.2987229,50.7170519 38.931771,50.7170519 39.3222779,50.3266287 C39.7127012,49.9361217 39.7127012,49.3030736 39.3222779,48.9125667 C39.1381355,48.7283342 38.8893741,48.6232237 38.6289189,48.6195977 Z M17.4160279,48.6215507 C17.145423,48.6173949 16.8846887,48.7230981 16.6933719,48.9145197 C16.3029487,49.3050266 16.3029487,49.9380747 16.6933719,50.3285817 C17.0838789,50.7190049 17.716927,50.7190049 18.1074339,50.3285817 C18.4978572,49.9380747 18.4978572,49.3050266 18.1074339,48.9145197 C17.9237739,48.7307546 17.6758039,48.6256824 17.4160279,48.6215507 Z M35.4824339,51.0024097 C35.314793,51.0066626 35.1509133,51.0530058 35.0058719,51.1371757 C34.5283408,51.4135666 34.3649004,52.0245004 34.6406369,52.5024097 C34.9170279,52.9799414 35.5279624,53.1433819 36.0058719,52.8676447 C36.4841123,52.5919223 36.6484687,51.9808301 36.3730589,51.5024097 C36.1901025,51.1852675 35.8484561,50.993466 35.4824339,51.0024097 Z M20.4589969,51.0063167 C20.1192643,51.022363 19.8109785,51.2099828 19.6406369,51.5043627 C19.5075939,51.7340556 19.4713318,52.0072203 19.5398403,52.2636689 C19.6083488,52.5201174 19.7760063,52.7388063 20.0058719,52.8715507 C20.2358017,53.0044313 20.5091444,53.040396 20.7656209,52.9715136 C21.0220974,52.9026313 21.2406416,52.7345596 21.3730589,52.5043627 C21.648468,52.0259425 21.4841117,51.414851 21.0058719,51.1391287 C20.840053,51.0434189 20.6502439,50.9973226 20.4589969,51.0063167 Z M24.1152469,52.5043627 C23.6662208,52.5082473 23.2748448,52.8109651 23.1582159,53.2445977 C23.0153559,53.7779967 23.3318793,54.3262293 23.8652469,54.4692067 C24.398646,54.6120667 24.9468786,54.2955433 25.0898559,53.7621757 C25.232716,53.2287766 24.9161926,52.680544 24.3828249,52.5375667 C24.2955403,52.5144698 24.2055296,52.5033003 24.1152469,52.5043627 Z M31.9277469,52.5043627 C31.8276843,52.5005042 31.7276096,52.511697 31.6308719,52.5375667 C31.0975043,52.680544 30.7809809,53.2287766 30.9238409,53.7621757 C30.9920802,54.0186715 31.1594896,54.2375171 31.3891893,54.3705011 C31.618889,54.5034851 31.8920337,54.5396971 32.1484499,54.4711597 C32.4050206,54.4025214 32.623747,54.2346364 32.7563853,54.0045347 C32.8890235,53.774433 32.9246767,53.5010185 32.8554809,53.2445977 C32.7419219,52.8211729 32.3658163,52.5210798 31.9277469,52.5043627 Z M28.0078249,53.0141287 C27.4555402,53.0141287 27.0078249,53.4618439 27.0078249,54.0141287 C27.0078249,54.5664134 27.4555402,55.0141287 28.0078249,55.0141287 C28.5601097,55.0141287 29.0078249,54.5664134 29.0078249,54.0141287 C29.0078249,53.4618439 28.5601097,53.0141287 28.0078249,53.0141287 Z" id="Shape"></path>
            </g>
        </g>
    </g>
</svg>