<?xml version="1.0" encoding="UTF-8"?>
<svg width="56px" height="60px" viewBox="0 0 56 60" version="1.1" xmlns="http://www.w3.org/2000/svg" xmlns:xlink="http://www.w3.org/1999/xlink">
    <title>medal.1</title>
    <g id="Drafting" stroke="none" stroke-width="1" fill="none" fill-rule="evenodd" fill-opacity="0.896244122">
        <g id="Artboard" transform="translate(-307.000000, -494.000000)" fill="#FFFFFF" fill-rule="nonzero">
            <path d="M308.039075,494 C308.00586,494 307.972616,494 307.939466,494.00241 C307.604286,494.022769 307.301696,494.20998 307.133867,494.50083 C306.966039,494.79168 306.955377,495.147342 307.105481,495.447723 L318.759778,519.725067 C315.792769,523.346986 314.007825,527.973774 314.007825,533.014129 C314.007825,544.600264 323.42169,554.014129 335.007825,554.014129 C346.59396,554.014129 356.007825,544.600264 356.007825,533.014129 C356.007825,527.973774 354.222881,523.346986 351.255872,519.725067 L362.910169,495.447723 C363.061976,495.142803 363.048154,494.781584 362.873488,494.489158 C362.698822,494.196731 362.387332,494.013309 362.046887,494.00241 C361.645463,493.988589 361.274718,494.216266 361.105481,494.580535 L349.806653,518.125457 C346.008548,514.350104 340.778051,512.014129 335.007825,512.014129 C334.30894,512.014129 333.619,512.050728 332.937513,512.117645 L340.910169,495.44577 C341.061203,495.140713 341.046703,494.779781 340.871686,494.487822 C340.696669,494.195864 340.385168,494.012972 340.044934,494.00241 C339.643751,493.989728 339.273854,494.218126 339.105481,494.582488 L335.007825,503.150848 L330.910169,494.582488 C330.753093,494.240356 330.417196,494.015419 330.041028,494 C330.007813,494 329.974569,494 329.941419,494.00241 C329.606449,494.022436 329.303848,494.20912 329.13567,494.499502 C328.967491,494.789885 328.956154,495.145258 329.105481,495.44577 L333.900403,505.467254 L332.298841,508.816863 L332.296887,508.816863 L331.433606,509.057098 L331.109387,509.891082 L331.203137,510.230926 L331.246106,510.322723 L331.488294,510.510223 L330.537122,512.498504 C326.558381,513.363743 322.996948,515.354207 320.208997,518.125457 L308.910169,494.580535 C308.752221,494.238554 308.415513,494.014334 308.039075,494 Z M357.166028,494.025848 L356.310559,494.297332 L356.105481,494.582488 L356.062513,494.672332 L356.078137,495.568817 L356.806653,496.092254 L357.660169,495.822723 L357.8672,495.535613 L357.910169,495.44577 L357.892591,494.549285 L357.166028,494.025848 Z M345.167981,494.027801 L344.312513,494.295379 L344.105481,494.580535 L344.062513,494.672332 L344.078137,495.566863 L344.8047,496.092254 L345.660169,495.822723 L345.865247,495.537567 L345.910169,495.447723 L345.894544,494.551238 L345.167981,494.027801 Z M313.203137,494.03366 L312.337903,494.271941 L312.011731,495.105926 L312.105481,495.44577 L312.14845,495.535613 L312.857434,496.084441 L313.720716,495.848113 L314.046887,495.012176 L313.953137,494.672332 L313.910169,494.582488 L313.203137,494.03366 Z M325.201184,494.03366 L324.337903,494.271941 L324.011731,495.107879 L324.105481,495.447723 L324.150403,495.537567 L324.857434,496.086395 L325.720716,495.84616 L326.046887,495.010223 L325.953137,494.672332 L325.910169,494.580535 L325.201184,494.03366 Z M343.392591,497.723113 L342.539075,497.992645 L342.332044,498.277801 L342.289075,498.367645 L342.3047,499.264129 L343.031263,499.787567 L343.884778,499.519988 L344.091809,499.232879 L344.134778,499.143035 L344.119153,498.246551 L343.392591,497.723113 Z M355.396497,497.725067 L354.542981,497.994598 L354.33595,498.281707 L354.292981,498.371551 L354.310559,499.268035 L355.037122,499.791473 L355.892591,499.519988 L356.097669,499.234832 L356.140637,499.144988 L356.125013,498.248504 L355.396497,497.725067 Z M326.974622,497.728973 L326.111341,497.969207 L325.787122,498.803191 L325.880872,499.143035 L325.923841,499.232879 L326.632825,499.781707 L327.496106,499.541473 L327.820325,498.707488 L327.726575,498.367645 L327.683606,498.277801 L326.974622,497.728973 Z M314.970716,497.732879 L314.107434,497.969207 L313.781263,498.805145 L313.875013,499.144988 L313.917981,499.234832 L314.625013,499.78366 L315.490247,499.545379 L315.816419,498.711395 L315.722669,498.371551 L315.6797,498.281707 L314.970716,497.732879 Z M341.619153,501.418426 L340.763684,501.687957 L340.558606,501.973113 L340.513684,502.06491 L340.529309,502.959441 L341.255872,503.484832 L342.111341,503.215301 L342.318372,502.930145 L342.361341,502.838348 L342.345716,501.943817 L341.619153,501.418426 Z M353.626966,501.424285 L352.77345,501.693817 L352.568372,501.980926 L352.525403,502.07077 L352.541028,502.965301 L353.269544,503.488738 L354.123059,503.219207 L354.328137,502.934051 L354.371106,502.842254 L354.355481,501.947723 L353.626966,501.424285 Z M328.750013,501.426238 L327.886731,501.66452 L327.560559,502.500457 L327.654309,502.838348 L327.697278,502.930145 L328.406263,503.47702 L329.269544,503.238738 L329.595716,502.402801 L329.501966,502.062957 L329.457044,501.973113 L328.750013,501.426238 Z M316.740247,501.430145 L315.876966,501.668426 L315.550794,502.50241 L315.644544,502.842254 L315.687513,502.934051 L316.394544,503.482879 L317.257825,503.244598 L317.583997,502.410613 L317.490247,502.07077 L317.447278,501.980926 L316.740247,501.430145 Z M339.843763,505.115691 L338.990247,505.38327 L338.783216,505.670379 L338.740247,505.760223 L338.755872,506.656707 L339.482434,507.180145 L340.337903,506.912567 L340.542981,506.625457 L340.58595,506.535613 L340.572278,505.639129 L339.843763,505.115691 Z M330.52345,505.121551 L329.660169,505.361785 L329.33595,506.19577 L329.4297,506.535613 L329.472669,506.625457 L330.181653,507.174285 L331.044934,506.934051 L331.369153,506.100067 L331.275403,505.760223 L331.232434,505.670379 L330.52345,505.121551 Z M351.859387,505.123504 L351.003919,505.393035 L350.798841,505.678191 L350.755872,505.769988 L350.771497,506.66452 L351.500013,507.187957 L352.353528,506.918426 L352.560559,506.631317 L352.603528,506.541473 L352.58595,505.644988 L351.859387,505.123504 Z M318.509778,505.129363 L317.644544,505.367645 L317.318372,506.201629 L317.412122,506.541473 L317.455091,506.631317 L318.164075,507.182098 L319.027356,506.943817 L319.353528,506.109832 L319.259778,505.769988 L319.216809,505.678191 L318.509778,505.129363 Z M338.070325,508.811004 L337.214856,509.080535 L337.009778,509.365691 L336.966809,509.455535 L336.980481,510.35202 L337.708997,510.875457 L338.562513,510.607879 L338.769544,510.322723 L338.812513,510.230926 L338.796887,509.336395 L338.070325,508.811004 Z M350.089856,508.82077 L349.236341,509.092254 L349.029309,509.37741 L348.986341,509.467254 L349.003919,510.363738 L349.730481,510.887176 L350.58595,510.617645 L350.791028,510.330535 L350.833997,510.240691 L350.818372,509.344207 L350.089856,508.82077 Z M320.277356,508.828582 L319.414075,509.066863 L319.087903,509.900848 L319.181653,510.240691 L319.224622,510.330535 L319.933606,510.879363 L320.796887,510.643035 L321.123059,509.807098 L321.029309,509.467254 L320.986341,509.37741 L320.277356,508.828582 Z M348.320325,512.519988 L347.466809,512.78952 L347.259778,513.076629 L347.216809,513.166473 L347.234387,514.062957 L347.96095,514.586395 L348.816419,514.31491 L349.021497,514.029754 L349.064466,513.93991 L349.048841,513.043426 L348.320325,512.519988 Z M322.046887,512.527801 L321.183606,512.764129 L320.857434,513.600067 L320.951184,513.93991 L320.994153,514.029754 L321.701184,514.578582 L322.566419,514.340301 L322.892591,513.506317 L322.798841,513.166473 L322.755872,513.076629 L322.046887,512.527801 Z M335.007825,514.014129 C345.51308,514.014129 354.007825,522.508874 354.007825,533.014129 C354.007825,543.519384 345.51308,552.014129 335.007825,552.014129 C324.50257,552.014129 316.007825,543.519384 316.007825,533.014129 C316.007825,522.508874 324.50257,514.014129 335.007825,514.014129 Z M335.007825,517.014129 C334.45554,517.014129 334.007825,517.461844 334.007825,518.014129 C334.007825,518.566413 334.45554,519.014129 335.007825,519.014129 C335.56011,519.014129 336.007825,518.566413 336.007825,518.014129 C336.007825,517.461844 335.56011,517.014129 335.007825,517.014129 Z M331.164075,517.525848 C331.064012,517.521989 330.963938,517.533181 330.8672,517.559051 C330.610704,517.62729 330.391859,517.794699 330.258875,518.024399 C330.125891,518.254099 330.089679,518.527243 330.158216,518.78366 C330.226432,519.040591 330.394141,519.259788 330.624298,519.392821 C330.854442,519.525854 331.128091,519.561774 331.384778,519.492645 C331.641349,519.424006 331.860075,519.256121 331.992714,519.026019 C332.125352,518.795917 332.161005,518.522503 332.091809,518.266082 C331.97825,517.842657 331.602144,517.542565 331.164075,517.525848 Z M338.880872,517.527801 C338.431846,517.531685 338.04047,517.834402 337.923841,518.268035 C337.78098,518.801434 338.097504,519.349667 338.630872,519.492645 C339.164271,519.635505 339.712504,519.318981 339.855481,518.785613 C339.998341,518.252214 339.681818,517.703981 339.14845,517.561004 C339.061165,517.537907 338.971155,517.526738 338.880872,517.527801 Z M327.484387,519.023895 C327.316917,519.027552 327.153048,519.07322 327.007825,519.156707 C326.777628,519.289124 326.609556,519.507668 326.540674,519.764145 C326.471791,520.020622 326.507756,520.293965 326.640637,520.523895 C326.773381,520.75376 326.99207,520.921417 327.248519,520.989926 C327.504968,521.058434 327.778132,521.022172 328.007825,520.889129 C328.485356,520.612737 328.648796,520.001804 328.373059,519.523895 C328.190441,519.207377 327.849716,519.015673 327.484387,519.023895 Z M342.458997,519.025848 C342.119264,519.041894 341.810978,519.229514 341.640637,519.523895 C341.507756,519.753824 341.471792,520.027167 341.540674,520.283644 C341.609556,520.54012 341.777628,520.758664 342.007825,520.891082 C342.486245,521.166491 343.097337,521.002134 343.373059,520.523895 C343.648796,520.045985 343.485356,519.435051 343.007825,519.15866 C342.84144,519.062585 342.6509,519.016476 342.458997,519.025848 Z M324.414075,521.406707 C324.144144,521.403081 323.884214,521.508744 323.693372,521.699676 C323.302949,522.090183 323.302949,522.723231 323.693372,523.113738 C324.083879,523.504161 324.716927,523.504161 325.107434,523.113738 C325.497857,522.723231 325.497857,522.090183 325.107434,521.699676 C324.923291,521.515443 324.67453,521.410333 324.414075,521.406707 Z M345.628919,521.406707 C345.358314,521.402551 345.09758,521.508254 344.906263,521.699676 C344.51584,522.090183 344.51584,522.723231 344.906263,523.113738 C345.29677,523.504161 345.929818,523.504161 346.320325,523.113738 C346.710748,522.723231 346.710748,522.090183 346.320325,521.699676 C346.136665,521.515911 345.888695,521.410838 345.628919,521.406707 Z M347.972669,524.514129 C347.805198,524.517786 347.641329,524.563454 347.496106,524.646941 C347.26624,524.779685 347.098583,524.998374 347.030075,525.254823 C346.961567,525.511271 346.997829,525.784436 347.130872,526.014129 C347.407263,526.491659 348.018197,526.655099 348.496106,526.379363 C348.974346,526.103641 349.138703,525.492549 348.863294,525.014129 C348.680337,524.696986 348.338691,524.505185 347.972669,524.514129 Z M321.970716,524.516082 C321.630277,524.531476 321.321114,524.719182 321.150403,525.014129 C321.017522,525.244059 320.981557,525.517401 321.05044,525.773878 C321.119322,526.030355 321.287394,526.248899 321.517591,526.381317 C321.996011,526.656726 322.607103,526.492369 322.882825,526.014129 C323.158562,525.53622 322.995122,524.925286 322.517591,524.648895 C322.351772,524.553185 322.161963,524.507088 321.970716,524.516082 Z M333.685559,526.293426 L330.458997,528.490691 L330.458997,531.268035 L333.517591,529.201629 L333.685559,529.201629 L333.685559,538.97702 L336.910169,538.97702 L336.910169,526.293426 L333.685559,526.293426 Z M320.509778,528.13327 C320.060752,528.137154 319.669376,528.439871 319.552747,528.873504 C319.409887,529.406903 319.72641,529.955135 320.259778,530.098113 C320.793177,530.240973 321.34141,529.924449 321.484387,529.391082 C321.627247,528.857683 321.310724,528.30945 320.777356,528.166473 C320.690071,528.143376 320.600061,528.132207 320.509778,528.13327 Z M349.535169,528.13327 C349.435106,528.129411 349.335032,528.140603 349.238294,528.166473 C348.704926,528.30945 348.388403,528.857683 348.531263,529.391082 C348.599502,529.647578 348.766911,529.866423 348.996611,529.999408 C349.226311,530.132392 349.499456,530.168604 349.755872,530.100067 C350.012443,530.031428 350.231169,529.863543 350.363808,529.633441 C350.496446,529.403339 350.532099,529.129925 350.462903,528.873504 C350.349344,528.450079 349.973238,528.149987 349.535169,528.13327 Z M320.007825,532.014129 C319.45554,532.014129 319.007825,532.461844 319.007825,533.014129 C319.007825,533.566413 319.45554,534.014129 320.007825,534.014129 C320.56011,534.014129 321.007825,533.566413 321.007825,533.014129 C321.007825,532.461844 320.56011,532.014129 320.007825,532.014129 Z M350.007825,532.014129 C349.45554,532.014129 349.007825,532.461844 349.007825,533.014129 C349.007825,533.566413 349.45554,534.014129 350.007825,534.014129 C350.56011,534.014129 351.007825,533.566413 351.007825,533.014129 C351.007825,532.461844 350.56011,532.014129 350.007825,532.014129 Z M320.556653,535.896941 C320.45659,535.893082 320.356516,535.904275 320.259778,535.930145 C319.72641,536.073122 319.409887,536.621355 319.552747,537.154754 C319.695724,537.688121 320.243957,538.004645 320.777356,537.861785 C321.310724,537.718807 321.627247,537.170575 321.484387,536.637176 C321.370828,536.213751 320.994722,535.913658 320.556653,535.896941 Z M349.486341,535.898895 C349.037315,535.902779 348.645938,536.205496 348.529309,536.639129 C348.386449,537.172528 348.702973,537.720761 349.236341,537.863738 C349.76974,538.006598 350.317973,537.690074 350.46095,537.156707 C350.60381,536.623308 350.287287,536.075075 349.753919,535.932098 C349.666634,535.909001 349.576624,535.897832 349.486341,535.898895 Z M321.994153,539.512176 C321.826512,539.516428 321.662632,539.562771 321.517591,539.646941 C321.040059,539.923332 320.876619,540.534266 321.152356,541.012176 C321.428078,541.490416 322.039171,541.654772 322.517591,541.379363 C322.747456,541.246618 322.915113,541.027929 322.983622,540.771481 C323.05213,540.515033 323.015868,540.241868 322.882825,540.012176 C322.700207,539.695658 322.359482,539.503954 321.994153,539.512176 Z M347.949231,539.516082 C347.609106,539.532543 347.300735,539.720951 347.130872,540.016082 C346.855135,540.493991 347.018575,541.104925 347.496106,541.381317 C347.974015,541.657054 348.58495,541.493613 348.861341,541.016082 C348.994384,540.786389 349.030646,540.513224 348.962137,540.256776 C348.893629,540.000328 348.725971,539.781639 348.496106,539.648895 C348.330287,539.553185 348.140478,539.507088 347.949231,539.516082 Z M345.628919,542.619598 C345.358988,542.615972 345.099058,542.721635 344.908216,542.912567 C344.517793,543.303074 344.517793,543.936122 344.908216,544.326629 C345.298723,544.717052 345.931771,544.717052 346.322278,544.326629 C346.712701,543.936122 346.712701,543.303074 346.322278,542.912567 C346.138135,542.728334 345.889374,542.623224 345.628919,542.619598 Z M324.416028,542.621551 C324.145423,542.617395 323.884689,542.723098 323.693372,542.91452 C323.302949,543.305027 323.302949,543.938075 323.693372,544.328582 C324.083879,544.719005 324.716927,544.719005 325.107434,544.328582 C325.497857,543.938075 325.497857,543.305027 325.107434,542.91452 C324.923774,542.730755 324.675804,542.625682 324.416028,542.621551 Z M342.482434,545.00241 C342.314793,545.006663 342.150913,545.053006 342.005872,545.137176 C341.528341,545.413567 341.3649,546.0245 341.640637,546.50241 C341.917028,546.979941 342.527962,547.143382 343.005872,546.867645 C343.484112,546.591922 343.648469,545.98083 343.373059,545.50241 C343.190102,545.185267 342.848456,544.993466 342.482434,545.00241 Z M327.458997,545.006317 C327.119264,545.022363 326.810978,545.209983 326.640637,545.504363 C326.507594,545.734056 326.471332,546.00722 326.53984,546.263669 C326.608349,546.520117 326.776006,546.738806 327.005872,546.871551 C327.235802,547.004431 327.509144,547.040396 327.765621,546.971514 C328.022097,546.902631 328.240642,546.73456 328.373059,546.504363 C328.648468,546.025942 328.484112,545.414851 328.005872,545.139129 C327.840053,545.043419 327.650244,544.997323 327.458997,545.006317 Z M331.115247,546.504363 C330.666221,546.508247 330.274845,546.810965 330.158216,547.244598 C330.015356,547.777997 330.331879,548.326229 330.865247,548.469207 C331.398646,548.612067 331.946879,548.295543 332.089856,547.762176 C332.232716,547.228777 331.916193,546.680544 331.382825,546.537567 C331.29554,546.51447 331.20553,546.5033 331.115247,546.504363 Z M338.927747,546.504363 C338.827684,546.500504 338.72761,546.511697 338.630872,546.537567 C338.097504,546.680544 337.780981,547.228777 337.923841,547.762176 C337.99208,548.018671 338.15949,548.237517 338.389189,548.370501 C338.618889,548.503485 338.892034,548.539697 339.14845,548.47116 C339.405021,548.402521 339.623747,548.234636 339.756385,548.004535 C339.889024,547.774433 339.924677,547.501019 339.855481,547.244598 C339.741922,546.821173 339.365816,546.52108 338.927747,546.504363 Z M335.007825,547.014129 C334.45554,547.014129 334.007825,547.461844 334.007825,548.014129 C334.007825,548.566413 334.45554,549.014129 335.007825,549.014129 C335.56011,549.014129 336.007825,548.566413 336.007825,548.014129 C336.007825,547.461844 335.56011,547.014129 335.007825,547.014129 Z" id="Shape"></path>
        </g>
    </g>
</svg>