<?xml version="1.0" encoding="UTF-8"?>
<svg width="39px" height="37px" viewBox="0 0 39 37" version="1.1" xmlns="http://www.w3.org/2000/svg" xmlns:xlink="http://www.w3.org/1999/xlink">
    <title>eye.slash@2x</title>
    <g id="Version-2.0-[iPad]" stroke="none" stroke-width="1" fill="none" fill-rule="evenodd" fill-opacity="0.896244122">
        <g id="Group" fill="#FFFFFF" fill-rule="nonzero">
            <path d="M3.19414063,0 L1.35585938,1.83857241 L35.1,37 L37.6441403,34.4554567 L31.9083986,28.7188059 C37.2912514,23.2676875 39,18.1470144 39,18.1470144 C39,18.1470144 37.1425158,12.610007 31.2380861,6.92258065 C28.2780745,3.8273879 24.1126197,1.89444063 19.5,1.89444063 C15.4865035,1.89444063 11.8125605,3.35835013 8.97431665,5.78109153 L3.19414063,0 Z M19.5,4.49485244 C27.027,4.49485244 33.15,10.6188222 33.15,18.1470144 C33.15,21.445038 31.9728513,24.4692351 30.0193361,26.8294442 L24.9183597,21.7276592 C25.5993335,20.7007144 26,19.4713066 26,18.1470144 C26,17.9259794 25.9864923,17.7114454 25.9669923,17.4969115 L21.45,17.4969115 L20.8,16.1967056 L22.8147458,12.5627315 C21.8462458,11.9841399 20.7155,11.6459849 19.5,11.6459849 C18.1762327,11.6459849 16.9471347,12.0465354 15.9199222,12.7277965 L10.8189451,7.62601219 C13.1780922,5.6710421 16.2011603,4.49485244 19.5,4.49485244 Z M6.08359375,8.6354498 C1.48809375,13.6737477 0,18.1470144 0,18.1470144 C0,18.1470144 1.85748413,23.6840219 7.7619139,29.3714482 C10.7219255,32.466641 14.8873803,34.3995882 19.5,34.3995882 C22.3275,34.3995882 24.986,33.6777711 27.3,32.4035693 L25.5125,30.3948526 C23.699,31.2984957 21.658,31.7991764 19.5,31.7991764 C11.973,31.7991764 5.85,25.6752066 5.85,18.1470144 C5.85,15.4425861 6.6430507,12.91333 8.0145507,10.7939944 L6.7526368,9.38078243 C6.75317045,9.37967075 6.7533726,9.3780845 6.75390625,9.37697348 L6.35654305,8.9376456 L6.2207028,8.78527772 C6.22036545,8.78575555 6.21977135,8.7860702 6.21943335,8.78654738 L6.08359375,8.6354498 Z M13.1878903,16.592862 C13.0643903,17.0934413 13,17.61393 13,18.1470144 C13,21.7355827 15.912,24.6480439 19.5,24.6480439 C19.7795,24.6480439 20.058543,24.6286423 20.331543,24.5896361 L13.1878903,16.592862 Z" id="Shape"></path>
        </g>
    </g>
</svg>